<svg width="201" height="30" viewBox="0 0 201 30" fill="none" xmlns="http://www.w3.org/2000/svg">
<path d="M12.25 4.25L8.3125 27H3.73438L7.6875 4.25H12.25ZM19.0312 4.25L18.3906 7.92188H0.375L1.01562 4.25H19.0312ZM33.1406 23.3438L32.5 27H20.7344L21.3594 23.3438H33.1406ZM26.1875 4.25L22.2344 27H17.6562L21.5938 4.25H26.1875ZM33.3125 13.5156L32.6875 17.0781H22.4531L23.0781 13.5156H33.3125ZM36.4219 4.25L35.7812 7.92188H24.0312L24.6875 4.25H36.4219ZM47.3594 8.375L38.2031 27H33.1719L45.3281 4.25H48.5469L47.3594 8.375ZM49.1719 27L46.3906 7.89062L46.5625 4.25H49.5781L53.875 27H49.1719ZM50.3281 18.5312L49.6875 22.2031H37.9844L38.625 18.5312H50.3281ZM62.1094 4.25H65.8281L68.5938 20.9062L77.1406 4.25H81.1719L69.2656 27H66.1406L62.1094 4.25ZM59.9375 4.25H63.8125L61.6719 20.7344L60.5625 27H56L59.9375 4.25ZM79.2969 4.25H83.1875L79.25 27H74.6562L75.8281 20.3438L79.2969 4.25ZM93.4531 18.9062L87.5625 18.8906L88.2031 15.2344L93.6094 15.25C94.3802 15.25 95.0885 15.1146 95.7344 14.8438C96.3802 14.5625 96.9115 14.1562 97.3281 13.625C97.7448 13.0938 98.0104 12.4271 98.125 11.625C98.2292 10.9479 98.1927 10.3385 98.0156 9.79688C97.8385 9.25521 97.526 8.81771 97.0781 8.48438C96.6302 8.15104 96.0521 7.96875 95.3438 7.9375L91.0781 7.92188L87.7656 27H83.1875L87.125 4.25L95.4844 4.26562C96.9323 4.29688 98.224 4.60938 99.3594 5.20312C100.495 5.78646 101.37 6.61979 101.984 7.70312C102.609 8.77604 102.859 10.0729 102.734 11.5938C102.599 13.25 102.083 14.6198 101.188 15.7031C100.292 16.7865 99.1615 17.5938 97.7969 18.125C96.4427 18.6458 94.9948 18.9062 93.4531 18.9062ZM118.078 23.3438L117.438 27H106.297L106.938 23.3438H118.078ZM111.75 4.25L107.797 27H103.219L107.156 4.25H111.75ZM135.516 23.3438L134.875 27H123.109L123.734 23.3438H135.516ZM128.562 4.25L124.609 27H120.031L123.969 4.25H128.562ZM135.688 13.5156L135.062 17.0781H124.828L125.453 13.5156H135.688ZM138.797 4.25L138.156 7.92188H126.406L127.062 4.25H138.797ZM146.359 22.968H173.175V26.424H146.359V22.968ZM157.591 16.408H161.847V23.768H157.591V16.408ZM149.143 2.392H170.231V16.952H149.143V2.392ZM166.071 5.784H153.335V13.592H166.071V5.784ZM189.012 6.264H197.076V9.688H189.012V6.264ZM189.012 15.448H197.076V18.872H189.012V15.448ZM183.892 2.264C188.308 2.264 191.54 6.36 191.54 12.824C191.54 19.352 188.308 23.448 183.892 23.448C179.444 23.448 176.244 19.352 176.244 12.824C176.244 6.36 179.444 2.264 183.892 2.264ZM183.892 6.136C181.748 6.136 180.276 8.472 180.276 12.824C180.276 17.24 181.748 19.608 183.892 19.608C186.068 19.608 187.508 17.24 187.508 12.824C187.508 8.472 186.068 6.136 183.892 6.136ZM196.404 0.183998H200.628V29.912H196.404V0.183998Z" fill="black"/>
</svg>
